<svg xmlns:xlink="http://www.w3.org/1999/xlink" xmlns="http://www.w3.org/2000/svg" class="icon" role="img" title="interacts" width="42.123" height="31.664"><defs><symbol id="interacts" viewBox="0 0 42.123 31.664">
<title>interacts</title>
<g id="Group_2546" data-name="Group 2546" transform="translate(-8836.287 -8680.703)">
  <g id="Group_2545" data-name="Group 2545">
    <path id="Path_2627" data-name="Path 2627" d="M8877.116,8705.886H8866.7a9.351,9.351,0,0,1-9.351-9.35h0a9.35,9.35,0,0,0-9.35-9.351h-10.417" fill="none" stroke-miterlimit="10" stroke-width="1.831"></path>
    <path id="Path_2628" data-name="Path 2628" d="M8843.416,8693.02l-5.834-5.834,5.834-5.834" fill="none" stroke-miterlimit="10" stroke-width="1.831"></path>
    <path id="Path_2629" data-name="Path 2629" d="M8871.282,8700.052l5.834,5.834-5.833,5.833" fill="none" stroke-miterlimit="10" stroke-width="1.831"></path>
    <line id="Line_310" data-name="Line 310" x1="13.637" transform="translate(8863.479 8687.186)" fill="none" stroke-miterlimit="10" stroke-width="1.831"></line>
    <path id="Path_2630" data-name="Path 2630" d="M8871.282,8681.352l5.834,5.834-5.833,5.834" fill="none" stroke-miterlimit="10" stroke-width="1.831"></path>
    <line id="Line_311" data-name="Line 311" x2="13.637" transform="translate(8837.582 8705.886)" fill="none" stroke-miterlimit="10" stroke-width="1.831"></line>
    <path id="Path_2631" data-name="Path 2631" d="M8843.416,8711.719l-5.834-5.833,5.834-5.834" fill="none" stroke-miterlimit="10" stroke-width="1.831"></path>
  </g>
</g>
</symbol></defs>
<g stroke="#741D5C" fill="#212529">
<title>interacts</title>
<g id="Group_2546" data-name="Group 2546" transform="translate(-8836.287 -8680.703)">
  <g id="Group_2545" data-name="Group 2545">
    <path id="Path_2627" data-name="Path 2627" d="M8877.116,8705.886H8866.7a9.351,9.351,0,0,1-9.351-9.35h0a9.35,9.35,0,0,0-9.35-9.351h-10.417" fill="none" stroke-miterlimit="10" stroke-width="1.831"></path>
    <path id="Path_2628" data-name="Path 2628" d="M8843.416,8693.02l-5.834-5.834,5.834-5.834" fill="none" stroke-miterlimit="10" stroke-width="1.831"></path>
    <path id="Path_2629" data-name="Path 2629" d="M8871.282,8700.052l5.834,5.834-5.833,5.833" fill="none" stroke-miterlimit="10" stroke-width="1.831"></path>
    <line id="Line_310" data-name="Line 310" x1="13.637" transform="translate(8863.479 8687.186)" fill="none" stroke-miterlimit="10" stroke-width="1.831"></line>
    <path id="Path_2630" data-name="Path 2630" d="M8871.282,8681.352l5.834,5.834-5.833,5.834" fill="none" stroke-miterlimit="10" stroke-width="1.831"></path>
    <line id="Line_311" data-name="Line 311" x2="13.637" transform="translate(8837.582 8705.886)" fill="none" stroke-miterlimit="10" stroke-width="1.831"></line>
    <path id="Path_2631" data-name="Path 2631" d="M8843.416,8711.719l-5.834-5.833,5.834-5.834" fill="none" stroke-miterlimit="10" stroke-width="1.831"></path>
  </g>
</g>
</g>
</svg>